<svg width="165" height="129" viewBox="0 0 165 129" fill="none" xmlns="http://www.w3.org/2000/svg">
<path d="M12.375 58.5006H82.5V70.1881H12.375V58.5006ZM0.6875 29.2819H59.125V40.9694H0.6875V29.2819Z" fill="#BF86AE"/>
<path d="M163.839 62.0419L146.308 21.1357C145.858 20.0843 145.109 19.1881 144.154 18.5586C143.2 17.929 142.081 17.5937 140.937 17.5944H123.406V5.90686C123.406 4.357 122.791 2.87062 121.695 1.77471C120.599 0.678791 119.112 0.0631104 117.562 0.0631104H24.0625V11.7506H111.719V85.1247C109.056 86.6709 106.726 88.729 104.862 91.1803C102.998 93.6316 101.639 96.4275 100.861 99.4069H64.1389C62.7166 93.8982 59.334 89.0974 54.6252 85.9043C49.9165 82.7112 44.2048 81.345 38.5608 82.0619C32.9168 82.7788 27.7281 85.5295 23.9671 89.7984C20.2061 94.0673 18.1312 99.5613 18.1312 105.251C18.1312 110.94 20.2061 116.434 23.9671 120.703C27.7281 124.972 32.9168 127.722 38.5608 128.439C44.2048 129.156 49.9165 127.79 54.6252 124.597C59.334 121.404 62.7166 116.603 64.1389 111.094H100.861C102.132 116.11 105.039 120.558 109.123 123.735C113.206 126.913 118.232 128.638 123.406 128.638C128.58 128.638 133.606 126.913 137.69 123.735C141.773 120.558 144.68 116.11 145.951 111.094H158.469C160.019 111.094 161.505 110.479 162.601 109.383C163.697 108.287 164.312 106.8 164.312 105.251V64.3444C164.313 63.5527 164.152 62.7693 163.839 62.0419ZM41.5937 116.938C39.2822 116.938 37.0225 116.253 35.1005 114.968C33.1785 113.684 31.6805 111.859 30.7959 109.723C29.9113 107.588 29.6798 105.238 30.1308 102.97C30.5818 100.703 31.6949 98.6208 33.3294 96.9863C34.9639 95.3518 37.0464 94.2386 39.3136 93.7877C41.5808 93.3367 43.9307 93.5682 46.0663 94.4528C48.2019 95.3374 50.0273 96.8354 51.3115 98.7574C52.5958 100.679 53.2812 102.939 53.2812 105.251C53.2781 108.349 52.0458 111.32 49.8546 113.511C47.6635 115.703 44.6925 116.935 41.5937 116.938ZM123.406 29.2819H137.081L149.61 58.5006H123.406V29.2819ZM123.406 116.938C121.095 116.938 118.835 116.253 116.913 114.968C114.991 113.684 113.493 111.859 112.608 109.723C111.724 107.588 111.492 105.238 111.943 102.97C112.394 100.703 113.507 98.6208 115.142 96.9863C116.776 95.3518 118.859 94.2386 121.126 93.7877C123.393 93.3367 125.743 93.5682 127.879 94.4528C130.014 95.3374 131.84 96.8354 133.124 98.7574C134.408 100.679 135.094 102.939 135.094 105.251C135.091 108.349 133.858 111.32 131.667 113.511C129.476 115.703 126.505 116.935 123.406 116.938ZM152.625 99.4069H145.951C144.664 94.4013 141.752 89.9644 137.672 86.7917C133.592 83.619 128.575 81.89 123.406 81.8756V70.1881H152.625V99.4069Z" fill="#BF86AE"/>
<path d="M106.625 93.3337L88.0172 74.7258C85.1258 71.8353 83.501 67.9146 83.5001 63.8262V16.2504" stroke="#BF86AE" stroke-width="12" stroke-linecap="round" stroke-linejoin="round"/>
</svg>
