<svg width="41" height="41" viewBox="0 0 41 41" fill="none" xmlns="http://www.w3.org/2000/svg">
<g clip-path="url(#clip0_0_21)">
<path d="M20.5 0.820068C9.63085 0.820068 0.819946 9.63097 0.819946 20.5001C0.819946 31.3692 9.63085 40.1801 20.5 40.1801C31.3691 40.1801 40.18 31.3692 40.18 20.5001C40.18 9.63097 31.3691 0.820068 20.5 0.820068ZM28.0686 23.0236C28.0686 23.0236 29.809 24.7415 30.2375 25.539C30.2498 25.5554 30.2559 25.5718 30.26 25.58C30.4343 25.8731 30.4753 26.1007 30.3892 26.2708C30.2457 26.5537 29.7537 26.6931 29.5856 26.7054H26.5106C26.2974 26.7054 25.8505 26.6501 25.3093 26.277C24.8931 25.9859 24.4831 25.5082 24.0834 25.0429C23.4868 24.35 22.9702 23.7514 22.4495 23.7514C22.3834 23.7513 22.3176 23.7616 22.2548 23.7821C21.8612 23.9092 21.3569 24.4709 21.3569 25.9674C21.3569 26.4348 20.9879 26.7034 20.7275 26.7034H19.3192C18.8395 26.7034 16.3405 26.5353 14.1265 24.2003C11.4164 21.3406 8.9769 15.6047 8.9564 15.5514C8.80265 15.1803 9.1204 14.9815 9.46685 14.9815H12.5726C12.9867 14.9815 13.122 15.2336 13.2163 15.4571C13.327 15.7174 13.7329 16.7527 14.3991 17.9171C15.4795 19.8154 16.1417 20.5862 16.6726 20.5862C16.7722 20.585 16.8699 20.5597 16.9576 20.5124C17.6504 20.127 17.5213 17.6567 17.4905 17.1442C17.4905 17.0479 17.4885 16.0393 17.1338 15.5555C16.8796 15.2049 16.4471 15.0717 16.1847 15.0225C16.2909 14.8759 16.4308 14.7571 16.5926 14.676C17.0682 14.4382 17.9252 14.4034 18.7759 14.4034H19.2495C20.172 14.4157 20.4098 14.4751 20.7439 14.5592C21.4204 14.7211 21.4348 15.1578 21.3753 16.6522C21.3569 17.0766 21.3384 17.5563 21.3384 18.1221C21.3384 18.2451 21.3323 18.3763 21.3323 18.5157C21.3118 19.2762 21.2872 20.1393 21.8243 20.4939C21.8943 20.5379 21.9753 20.5613 22.058 20.5616C22.2445 20.5616 22.8062 20.5616 24.3273 17.9519C24.7964 17.1119 25.2041 16.2391 25.5471 15.3402C25.5778 15.2869 25.668 15.1229 25.7746 15.0594C25.8533 15.0193 25.9405 14.9989 26.0288 14.9999H29.6799C30.0776 14.9999 30.3502 15.0594 30.4015 15.2131C30.4917 15.4571 30.3851 16.2012 28.7184 18.4583L27.9743 19.4402C26.4634 21.4205 26.4634 21.521 28.0686 23.0236Z" fill="#886788"/>
</g>
<defs>
<clipPath id="clip0_0_21">
<rect width="41" height="41" fill="white"/>
</clipPath>
</defs>
</svg>
